# xmcd
#
# Track frame offsets:
#	150
#	14759
#	28395
#	44154
#	60678
#	70065
#	94051
#	110101
#	125107
#	130087
#	134663
#	144421
#	163570
#	167986
#	172752
#	178486
#	189354
#	194862
#	198635
#	205424
#	210988
#
# Disc length: 2887 seconds
#
# Revision: 0
# Processed by: cddbd v1.5.2PL0 Copyright (c) Steve Scherf et al.
# Submitted via: EZCDAudioConverter 7.0.6.1
#
DISCID=580b4515
DTITLE=V/A - Summertime Killer
DYEAR=1900
DGENRE=
TTITLE0=Country Lovers - Run And Run
TTITLE1=Country Lovers - Like A Play
TTITLE2=Luis Bacalov - The Summertime Killer
TTITLE3=Luis Bacalov - Motorcycle Circus
TTITLE4=Luis Bacalov - Lisboa's Tram
TTITLE5=Luis Bacalov - The House On The Lake
TTITLE6=Luis Bacalov - Like A Play
TTITLE7=Country Lovers - Run And Run
TTITLE8=Luis Bacalov - The House On The Lake #2
TTITLE9=Luis Bacalov - Run And Run #2
TTITLE10=Luis Bacalov - The House On The Lake #3
TTITLE11=Luis Bacalov - The Summertime Killer (Lounge)
TTITLE12=Luis Bacalov - The House On The Lake #4
TTITLE13=Luis Bacalov - Like A Play #2
TTITLE14=Luis Bacalov - The House On The Lake #5
TTITLE15=Luis Bacalov - Run And Run #3
TTITLE16=Luis Bacalov - Like A Play #3
TTITLE17=Luis Bacalov - The House On The Lake #6
TTITLE18=Luis Bacalov - Like A Play #4
TTITLE19=Luis Bacalov - The House On The Lake #7
TTITLE20=Luis Bacalov - Like A Play #5
EXTD=
EXTT0=
EXTT1=
EXTT2=
EXTT3=
EXTT4=
EXTT5=
EXTT6=
EXTT7=
EXTT8=
EXTT9=
EXTT10=
EXTT11=
EXTT12=
EXTT13=
EXTT14=
EXTT15=
EXTT16=
EXTT17=
EXTT18=
EXTT19=
EXTT20=
PLAYORDER=
